<svg id="svg" version="1.1" width="1000" height="500" xmlns="http://www.w3.org/2000/svg" xmlns:xlink="http://www.w3.org/1999/xlink" style="display: block;"><g id="svgg"><path id="path1" d="M103.400 21.765 C 88.926 25.871,69.302 44.532,50.184 72.372 C 46.558 77.652,46.528 77.200,50.500 77.199 L 53.800 77.198 57.400 72.120 C 73.396 49.557,90.827 32.531,102.600 27.972 C 119.415 21.459,168.168 46.043,193.395 73.756 L 196.530 77.200 200.093 77.200 L 203.655 77.200 201.251 74.300 C 176.571 44.535,123.527 16.057,103.400 21.765 M155.082 98.918 C 149.207 108.721,144.400 116.845,144.400 116.971 C 144.400 117.097,145.803 117.200,147.518 117.200 L 150.637 117.200 151.835 115.100 L 153.034 113.000 159.213 113.000 L 165.392 113.000 165.727 115.100 L 166.061 117.200 169.031 117.200 C 171.618 117.200,172.000 117.108,172.000 116.484 C 172.000 115.857,166.139 82.366,165.869 81.447 C 165.812 81.253,160.958 89.115,155.082 98.918 M224.476 82.825 C 214.201 87.960,214.897 100.135,225.581 102.146 C 230.141 103.004,231.584 105.325,229.490 108.431 C 226.721 112.541,220.000 112.829,220.000 108.837 C 220.000 107.606,218.910 107.214,215.453 107.204 L 213.907 107.200 214.069 109.753 C 214.828 121.674,234.023 119.376,235.906 107.139 C 236.817 101.215,234.038 97.709,227.648 96.722 C 223.384 96.063,222.374 94.879,223.426 91.773 C 225.127 86.752,233.600 85.474,233.600 90.239 C 233.600 91.187,234.829 91.600,237.650 91.600 L 239.200 91.600 239.200 89.626 C 239.200 82.810,231.564 79.283,224.476 82.825 M309.928 83.002 C 309.375 83.881,304.586 91.845,299.287 100.700 L 289.651 116.800 292.791 116.800 L 295.931 116.800 297.162 114.800 L 298.393 112.800 304.559 112.800 L 310.725 112.800 311.000 114.800 L 311.275 116.800 314.238 116.800 C 315.867 116.800,317.200 116.682,317.200 116.537 C 317.200 116.196,311.204 82.325,311.051 81.802 C 310.987 81.582,310.482 82.122,309.928 83.002 M18.000 82.181 C 18.000 82.280,16.380 89.959,14.400 99.244 C 12.420 108.530,10.800 116.278,10.800 116.463 C 10.800 118.091,26.145 116.356,30.280 114.261 C 42.440 108.099,45.157 88.655,34.523 83.889 C 31.223 82.410,18.000 81.043,18.000 82.181 M47.600 82.493 C 47.600 83.223,53.645 117.377,53.802 117.535 C 53.990 117.724,75.200 82.672,75.200 82.171 C 75.200 82.077,73.775 82.000,72.033 82.000 L 68.866 82.000 62.968 92.015 C 59.723 97.523,56.947 101.888,56.797 101.715 C 56.647 101.542,55.944 97.440,55.234 92.600 C 54.525 87.760,53.847 83.395,53.729 82.900 C 53.478 81.852,47.600 81.462,47.600 82.493 M99.269 84.031 C 98.508 87.328,98.390 87.200,102.176 87.200 C 104.033 87.200,105.623 87.335,105.708 87.500 C 105.793 87.665,104.473 94.280,102.775 102.200 C 101.076 110.120,99.768 116.735,99.867 116.900 C 100.238 117.518,105.211 117.237,105.461 116.584 C 105.591 116.246,107.071 109.541,108.749 101.684 L 111.800 87.400 115.500 87.285 C 117.535 87.222,119.206 87.042,119.214 86.885 C 119.222 86.728,119.476 85.565,119.778 84.300 L 120.328 82.000 110.033 82.000 L 99.737 82.000 99.269 84.031 M124.805 84.300 C 124.556 85.565,124.273 86.840,124.176 87.133 C 124.079 87.427,124.735 89.407,125.633 91.533 C 126.532 93.660,127.361 95.625,127.476 95.900 C 127.631 96.270,127.007 96.400,125.066 96.400 C 121.861 96.400,122.408 95.311,120.016 106.438 C 117.467 118.294,117.390 117.200,120.773 117.200 C 123.070 117.200,123.581 117.080,123.749 116.500 C 123.860 116.115,124.516 113.100,125.207 109.800 C 125.898 106.500,126.551 103.485,126.658 103.100 C 126.805 102.575,127.272 102.401,128.527 102.405 L 130.200 102.410 132.987 109.247 C 136.489 117.841,135.932 117.203,139.652 116.872 L 142.704 116.600 139.954 109.600 C 136.674 101.250,136.736 101.953,139.196 101.079 C 146.292 98.558,149.119 88.230,143.818 84.187 C 141.470 82.396,139.325 82.000,131.965 82.000 L 125.257 82.000 124.805 84.300 M180.236 98.901 C 178.276 108.196,176.592 116.025,176.493 116.300 C 176.360 116.672,177.089 116.800,179.329 116.800 L 182.343 116.800 182.820 114.500 C 184.170 107.980,187.561 92.706,187.686 92.581 C 187.764 92.502,190.455 97.874,193.665 104.519 L 199.501 116.600 202.539 116.717 C 205.420 116.827,205.588 116.786,205.792 115.917 C 206.535 112.768,212.793 82.908,212.796 82.500 C 212.803 81.631,207.305 81.823,207.050 82.700 C 206.938 83.085,205.745 88.526,204.398 94.791 C 203.052 101.057,201.878 106.255,201.790 106.343 C 201.702 106.431,198.937 100.990,195.645 94.252 L 189.660 82.000 186.730 82.001 L 183.800 82.003 180.236 98.901 M244.455 84.267 C 244.205 85.513,244.000 86.683,244.000 86.867 C 244.000 87.050,245.632 87.200,247.627 87.200 C 250.890 87.200,251.234 87.270,251.055 87.900 C 250.945 88.285,249.575 94.720,248.010 102.200 C 246.445 109.680,245.088 116.025,244.995 116.300 C 244.869 116.670,245.586 116.800,247.751 116.800 L 250.676 116.800 253.816 102.000 L 256.956 87.200 260.645 87.200 L 264.334 87.200 264.767 85.180 C 265.005 84.069,265.200 82.899,265.200 82.580 C 265.200 82.088,263.653 82.000,255.055 82.000 L 244.910 82.000 244.455 84.267 M269.930 84.869 L 269.351 87.800 271.075 91.959 C 273.228 97.151,273.301 96.800,270.070 96.800 L 267.340 96.800 265.266 106.500 C 264.125 111.835,263.194 116.335,263.196 116.500 C 263.198 116.665,264.457 116.800,265.992 116.800 C 269.244 116.800,268.666 117.828,270.599 108.600 L 271.856 102.600 273.640 102.482 L 275.425 102.363 278.381 109.582 L 281.338 116.800 284.630 116.800 L 287.921 116.800 285.008 109.408 L 282.095 102.015 284.242 101.032 C 289.422 98.661,291.801 95.040,291.542 89.919 C 291.232 83.787,288.557 82.264,277.755 82.069 L 270.509 81.938 269.930 84.869 M325.435 98.605 C 323.487 107.798,321.807 115.653,321.700 116.060 C 321.447 117.030,330.594 117.126,334.965 116.200 C 345.363 113.998,351.605 106.178,351.750 95.173 C 351.867 86.231,347.138 82.634,334.588 82.119 L 328.976 81.889 325.435 98.605 M358.641 98.500 C 356.714 107.575,355.041 115.405,354.925 115.900 L 354.713 116.800 366.301 116.800 L 377.889 116.800 378.465 114.100 L 379.041 111.400 370.332 111.292 L 361.623 111.185 361.881 109.892 C 362.022 109.182,362.423 107.250,362.770 105.600 L 363.402 102.600 370.677 102.491 C 378.707 102.371,378.041 102.614,378.600 99.600 C 378.743 98.830,378.948 97.885,379.057 97.500 C 379.239 96.852,378.718 96.800,372.027 96.800 C 366.506 96.800,364.803 96.682,364.811 96.300 C 364.817 96.025,365.226 94.000,365.720 91.800 L 366.618 87.800 375.393 87.600 L 384.168 87.400 384.667 85.000 C 384.941 83.680,385.173 82.465,385.183 82.300 C 385.192 82.135,380.013 82.000,373.673 82.000 L 362.147 82.000 358.641 98.500 M29.508 88.210 C 38.892 90.996,35.986 106.739,25.454 110.179 C 22.386 111.181,18.000 111.491,18.000 110.705 C 18.000 110.114,22.646 89.106,22.999 88.100 C 23.246 87.397,26.984 87.460,29.508 88.210 M284.277 88.536 C 287.923 90.422,284.842 96.356,280.200 96.388 C 279.366 96.394,275.776 88.371,276.346 87.776 C 276.808 87.293,283.026 87.890,284.277 88.536 M340.911 88.231 C 349.114 91.027,347.072 105.065,337.799 109.630 C 334.812 111.101,328.045 111.903,328.494 110.733 C 328.618 110.410,329.847 105.073,331.226 98.873 L 333.734 87.600 336.396 87.600 C 337.860 87.600,339.891 87.884,340.911 88.231 M138.926 88.465 C 142.521 90.380,139.551 96.434,135.037 96.392 C 134.313 96.386,131.200 89.795,131.200 88.268 C 131.200 87.804,138.010 87.977,138.926 88.465 M309.031 101.901 C 309.862 108.657,310.234 108.056,305.302 107.915 L 301.299 107.800 304.695 101.878 C 306.562 98.622,308.144 96.012,308.210 96.078 C 308.276 96.145,308.645 98.765,309.031 101.901 M163.731 101.700 C 164.105 104.615,164.408 107.225,164.405 107.500 C 164.401 107.866,163.331 108.000,160.400 108.000 C 158.200 108.000,156.400 107.878,156.400 107.729 C 156.400 107.298,162.576 96.418,162.826 96.409 C 162.950 96.404,163.357 98.785,163.731 101.700 M29.600 121.788 C 29.600 122.533,32.232 128.938,33.385 131.000 C 47.914 156.980,97.182 182.131,121.693 176.081 C 142.897 170.847,176.973 147.028,195.346 124.600 L 197.640 121.800 194.150 121.683 L 190.659 121.567 188.270 124.283 C 170.305 144.707,140.035 165.483,121.329 170.228 C 96.574 176.508,46.430 149.148,36.419 123.900 L 35.507 121.600 32.554 121.600 C 30.929 121.600,29.600 121.685,29.600 121.788 " stroke="none" fill="#ffffff" fill-rule="evenodd"></path></g></svg>